<?xml version="1.0" encoding="UTF-8" standalone="no"?>
<!-- Created with Inkscape (http://www.inkscape.org/) -->

<svg
   version="1.1"
   id="svg107"
   width="1353.6508"
   height="439.36508"
   viewBox="0 0 1353.6508 439.36508"
   sodipodi:docname="logo.svg"
   inkscape:version="1.1.2 (b8e25be833, 2022-02-05)"
   xmlns:inkscape="http://www.inkscape.org/namespaces/inkscape"
   xmlns:sodipodi="http://sodipodi.sourceforge.net/DTD/sodipodi-0.dtd"
   xmlns="http://www.w3.org/2000/svg"
   xmlns:svg="http://www.w3.org/2000/svg">
  <defs
     id="defs111" />
  <sodipodi:namedview
     id="namedview109"
     pagecolor="#ffffff"
     bordercolor="#666666"
     borderopacity="1.0"
     inkscape:pageshadow="2"
     inkscape:pageopacity="0.0"
     inkscape:pagecheckerboard="0"
     showgrid="false"
     inkscape:zoom="0.91013136"
     inkscape:cx="576.83981"
     inkscape:cy="101.08431"
     inkscape:window-width="2560"
     inkscape:window-height="1377"
     inkscape:window-x="-8"
     inkscape:window-y="-8"
     inkscape:window-maximized="1"
     inkscape:current-layer="g113" />
  <g
     inkscape:groupmode="layer"
     inkscape:label="Image"
     id="g113">
    <g
       aria-label="jackbox"
       id="text6933"
       style="font-size:226.667px;line-height:1.35;font-family:'Hiragino Kaku Gothic Std';-inkscape-font-specification:'Hiragino Kaku Gothic Std';fill:#0068fc">
      <path
         d="m 116.47855,37.089477 v 34.000051 h 46.0134 V 37.089477 Z m -0.90667,50.320075 c 1.36001,9.520015 1.81334,18.360028 1.81334,34.226718 l 0.22667,106.98683 c 0,8.16001 -4.30668,12.46668 -12.46669,12.46668 -6.800009,0 -10.426681,-2.49333 -13.600019,-9.97334 l -37.626724,16.32002 c 10.880017,15.18669 28.106709,22.44003 52.813413,22.44003 18.13336,0 33.32005,-4.98667 42.84006,-13.82668 7.93335,-7.25335 11.78669,-17.68003 11.78669,-31.96005 V 121.63627 c 0,-16.32002 0.45333,-26.293372 1.81334,-34.226718 z"
         id="path51234" />
      <path
         d="m 281.03868,136.14296 c -16.32002,0.45333 -23.12003,0.68 -31.96005,1.58667 -20.40003,1.81333 -35.58672,6.57334 -47.14674,14.73335 -10.88001,7.48001 -16.54669,18.81337 -16.54669,33.09339 0,12.46668 4.30668,23.3467 12.46669,30.82671 9.06668,8.38668 21.9867,12.46669 39.21339,12.46669 18.5867,0 31.28005,-3.85334 43.9734,-13.60003 v 10.42669 h 43.9734 c -1.13334,-10.20002 -1.58667,-18.36003 -1.58667,-32.18672 v -61.20009 c 0,-20.40003 -6.34668,-32.866716 -20.85336,-40.800061 -8.84002,-4.760008 -25.16004,-7.933346 -41.9334,-7.933346 -21.9867,0 -38.76006,4.306673 -51.00008,12.92002 -9.52001,6.800007 -14.50669,14.053357 -19.04003,27.426707 l 43.2934,7.02668 c 3.40001,-11.10669 11.10669,-15.86669 25.61337,-15.86669 14.96003,0 21.53337,4.98667 21.53337,15.86669 z m 0,35.36005 c 0,6.80001 -2.94667,12.92002 -8.16001,17.45336 -6.12001,5.21334 -16.32003,8.61335 -25.61337,8.61335 -11.78669,0 -18.5867,-4.76001 -18.5867,-12.92002 0,-6.57334 4.98668,-12.24002 13.14669,-14.96002 9.29335,-2.94667 19.04003,-4.08001 39.21339,-4.53334 z"
         id="path51236" />
      <path
         d="m 482.5457,129.34295 c -7.48001,-30.146713 -31.73338,-47.373406 -66.6401,-47.373406 -44.20007,0 -72.76011,29.013376 -72.76011,74.346776 0,22.21337 7.25335,42.16007 20.40003,55.08009 12.46669,12.69335 31.05338,19.49336 52.81341,19.49336 26.29338,0 46.92008,-9.29335 58.25343,-26.06671 4.30667,-6.57334 7.02667,-12.69335 9.52001,-22.44003 l -41.70673,-6.57334 c -0.90667,5.21334 -2.04,7.48001 -4.08001,10.42668 -4.53334,6.34667 -12.69335,9.97335 -21.53336,9.97335 -18.13336,0 -29.69338,-15.86669 -29.69338,-40.34673 0,-24.93337 10.88002,-39.44006 29.24004,-39.44006 8.16002,0 14.50669,2.72 19.04003,7.93334 2.94667,3.40001 4.30668,6.57335 6.34668,13.37336 z"
         id="path51238" />
      <path
         d="m 501.81233,37.089477 c 1.13334,8.386679 1.81334,18.813361 1.81334,34.226718 V 191.44971 c 0,14.96002 -0.45334,24.0267 -1.81334,34.22672 h 46.24007 c -1.58667,-9.06668 -1.81333,-14.50669 -1.81333,-33.09339 v -9.06668 l 17.00002,-16.32002 17.22669,28.10671 c 6.57335,10.88001 11.56002,20.85336 14.96003,30.37338 h 57.80008 c -6.34667,-7.70668 -7.25334,-9.06668 -21.08003,-29.01338 L 594.29247,141.3563 627.15919,109.62292 C 639.39921,97.609568 642.11921,95.116231 650.95922,87.409552 H 590.6658 c -4.30667,6.573344 -9.29335,12.466686 -19.72003,22.893368 l -24.93337,24.7067 V 71.316195 c 0,-15.18669 0.45333,-24.933371 1.81333,-34.226718 z"
         id="path51240" />
      <path
         d="m 712.15941,225.67643 v -7.25335 c 0,-1.13333 -0.22666,-4.08 -0.22666,-4.76 14.73335,12.24001 25.84004,16.09335 44.6534,16.09335 19.94669,0 35.36005,-5.89334 47.14674,-17.68002 13.14668,-13.82669 20.17336,-33.32005 20.17336,-57.57342 0,-44.88007 -24.0267,-71.173444 -65.2801,-71.173444 -18.81336,0 -33.32005,5.213341 -46.6934,17.000024 0.22666,-3.173336 0.22666,-5.213339 0.22666,-8.613344 V 72.676197 c 0,-16.546692 0.45334,-24.706704 1.58667,-35.58672 h -46.0134 c 1.36,10.880016 1.81334,19.040028 1.81334,35.58672 V 190.08971 c 0,15.18669 -0.45334,24.7067 -1.81334,35.58672 z m 67.77344,-70.72011 c 0,24.0267 -13.14669,40.12006 -32.86672,40.12006 -19.49336,0 -34.45338,-17.00002 -34.45338,-39.44006 0,-21.9867 14.73335,-37.85339 35.36005,-37.85339 19.9467,0 31.96005,14.05336 31.96005,37.17339 z"
         id="path51242" />
      <path
         d="m 910.71949,230.88977 c 45.10673,0 75.02678,-29.92005 75.02678,-75.02678 0,-44.88007 -29.01338,-73.666779 -74.80012,-73.666779 -45.78673,0 -74.80011,28.786709 -74.80011,74.120109 0,45.56007 29.01338,74.57345 74.57345,74.57345 z m 0.45333,-114.69351 c 19.2667,0 30.82671,14.96002 30.82671,40.34673 0,25.16004 -11.33335,39.89339 -31.05338,39.89339 -19.72003,0 -31.50671,-15.18669 -31.50671,-40.34672 0,-24.93338 11.78668,-39.8934 31.73338,-39.8934 z"
         id="path51244" />
      <path
         d="m 1150.3066,225.67643 c -7.4801,-9.29335 -12.2401,-15.41336 -16.7734,-21.76004 l -36.2667,-51.22674 32.1867,-45.3334 c 3.8533,-5.21334 10.88,-14.506689 15.4134,-19.946698 h -50.7735 c -2.2666,5.893343 -5.44,11.786685 -10.4266,19.266698 l -11.1067,17.00002 -11.3334,-17.00002 c -4.76,-7.026679 -6.5733,-10.426684 -10.2,-19.266698 h -51.22673 c 9.06663,11.560018 14.28003,18.360028 15.41333,19.946698 l 32.4134,45.3334 -36.7201,51.68008 c -4.3066,6.12001 -10.88,14.50669 -16.77331,21.3067 h 53.04011 c 3.4,-7.25335 7.2533,-14.50669 10.88,-19.9467 l 14.28,-22.44003 14.0534,21.76003 c 4.08,6.34668 8.3866,13.82669 11.3333,20.6267 z"
         id="path51246" />
    </g>
    <g
       aria-label="日本語化"
       id="text56504"
       style="font-size:96px;line-height:1.25;font-family:'Hiragino Kaku Gothic Std';-inkscape-font-specification:'Hiragino Kaku Gothic Std';writing-mode:tb-rl;fill:#0068fc">
      <path
         d="m 1264.057,27.500028 c -4.416,0 -7.872,-0.192 -11.04,-0.48 0.288,3.936 0.48,7.392 0.48,10.944 v 62.208002 c 0,4.8 -0.192,9.216 -0.576,13.152 h 15.84 v -4.8 h 39.936 v 4.8 h 16.128 c -0.384,-3.936 -0.576,-7.68 -0.576,-13.152 V 37.868028 c 0,-3.168 0.192,-6.72 0.48,-10.848 -2.976,0.384 -6.144,0.48 -10.656,0.48 z m 4.704,32.832 v -18.624 h 39.936 v 18.624 z m 39.936,13.728 v 20.064 h -39.936 v -20.064 z"
         id="path80462" />
      <path
         d="m 1319.449,148.55603 c 4.896,0 8.352,0.192 12.48,0.672 v -15.168 c -3.648,0.48 -7.488,0.672 -12.48,0.672 h -23.616 v -5.856 c 0,-4.224 0.096,-6.72 0.576,-9.024 h -16.416 c 0.48,2.4 0.672,4.8 0.672,9.024 v 5.856 h -22.656 c -4.704,0 -8.448,-0.192 -12.288,-0.672 v 15.168 c 3.936,-0.48 7.584,-0.672 12.288,-0.672 h 15.552 c -3.552,6.816 -5.856,10.176 -10.272,15.36 -6.24,7.392 -12.576,12.864 -20.544,17.664 3.264,4.416 4.896,7.584 7.584,14.304 5.76,-3.84 9.12,-6.72 14.592,-12.192 v 8.832 c 2.88,-0.288 5.952,-0.48 9.504,-0.48 h 6.24 v 5.088 c 0,4.704 -0.288,9.024 -0.672,12.864 h 16.512 c -0.48,-3.744 -0.672,-8.064 -0.672,-12.864 v -5.088 h 6.912 c 3.648,0 6.528,0.192 9.6,0.48 v -8.64 c 4.8,4.608 8.256,7.392 14.976,11.808 2.592,-6.528 4.416,-9.984 7.776,-14.784 -8.256,-4.32 -14.88,-9.408 -21.6,-16.608 -4.896,-5.28 -7.68,-9.312 -11.04,-15.744 z m -38.784,30.336 h -7.104 c -1.728,0 -2.304,0 -4.224,0 5.28,-6.24 8.256,-10.656 11.712,-17.184 -0.288,3.264 -0.384,5.28 -0.384,8.256 z m 15.168,0 v -9.12 c 0,-1.632 -0.096,-2.688 -0.48,-8.16 3.744,6.624 7.2,11.52 12.192,17.28 -1.056,0 -1.632,0 -3.648,0 z"
         id="path80464" />
      <path
         d="m 1279.801,266.82803 c 3.168,-0.288 4.896,-0.384 9.504,-0.384 h 35.904 c 4.416,0 6.528,0.096 9.408,0.384 v -13.824 c -2.592,0.384 -3.84,0.48 -7.008,0.48 v -11.808 c 0,-3.072 0.096,-4.704 0.288,-6.624 -2.016,0.192 -3.936,0.288 -6.912,0.288 h -11.424 l 0.096,-0.384 1.152,-4.416 h 11.712 c 5.184,0 7.776,0.096 10.944,0.384 v -13.728 c -3.264,0.384 -7.104,0.576 -11.904,0.576 h -28.32 c -4.416,0 -8.064,-0.192 -11.808,-0.576 v 13.728 c 3.168,-0.288 5.568,-0.384 10.656,-0.384 h 4.416 c -0.672,2.976 -0.672,2.976 -1.152,4.8 h -4.512 c -3.36,0 -5.28,-0.096 -7.2,-0.288 v 12.96 c 2.016,-0.192 4.032,-0.288 6.624,-0.288 h 1.44 c -0.864,2.4 -1.056,3.168 -2.112,5.76 -5.472,0 -6.816,-0.096 -9.792,-0.48 z m 24.288,-13.344 c 1.056,-2.88 1.344,-3.744 1.92,-5.76 h 7.488 v 5.76 z m -56.832,-24.96 c 2.592,-0.192 4.896,-0.288 8.64,-0.288 h 13.344 c 4.416,0 5.664,0 8.736,0.288 v -11.232 c -2.592,0.288 -4.128,0.384 -8.736,0.384 h -13.344 c -4.512,0 -6.048,-0.096 -8.64,-0.384 z m -2.976,15.36 c 2.208,-0.288 4.32,-0.384 7.776,-0.384 h 19.872 c 4.8,0 5.76,0 7.776,0.288 v -12.96 c -1.248,0.384 -2.976,0.48 -7.968,0.48 h -19.68 c -3.648,0 -5.472,-0.096 -7.776,-0.48 z m 3.072,13.44 c 1.824,-0.192 2.784,-0.192 5.76,-0.192 h 19.296 c 2.976,0 3.552,0 5.472,0.192 v -10.848 c -1.824,0.192 -2.4,0.192 -5.472,0.192 h -19.296 c -2.976,0 -3.84,0 -5.76,-0.192 z m 0,13.632 c 1.632,-0.192 2.688,-0.192 5.568,-0.192 h 19.2 c 3.264,0 3.84,0 5.76,0.192 v -10.848 c -1.824,0.192 -2.496,0.192 -5.568,0.192 h -19.2 c -2.976,0 -3.84,0 -5.76,-0.192 z m 12.768,31.104 h 6.048 v 2.592 h 12.96 c -0.288,-1.92 -0.288,-3.264 -0.288,-7.104 v -17.472 c 0,-3.552 0,-4.8 0.192,-6.432 -1.536,0.288 -2.496,0.288 -5.856,0.288 h -19.584 c -3.072,0 -4.992,-0.096 -7.2,-0.288 0.288,2.304 0.384,4.32 0.384,7.2 v 15.744 c 0,3.072 -0.192,6.432 -0.48,9.408 h 13.824 z m -0.288,-17.76 h 6.336 v 6.432 h -6.336 z m 37.92,17.856 h 18.336 v 3.744 h 14.688 c -0.384,-2.496 -0.48,-5.472 -0.48,-9.888 v -19.2 c 0,-2.784 0.096,-5.088 0.288,-7.104 -1.44,0.192 -2.976,0.288 -7.104,0.288 h -32.16 c -3.456,0 -5.76,-0.096 -7.872,-0.288 0.192,1.728 0.288,3.36 0.288,5.76 v 20.448 c 0,3.744 -0.096,6.816 -0.384,10.08 h 14.4 z m 0,-19.968 h 18.336 v 7.2 h -18.336 z"
         id="path80466" />
      <path
         d="m 1299.769,357.93203 c 10.464,-5.472 14.688,-7.968 21.216,-12.768 2.112,-1.632 7.68,-6.048 10.464,-8.256 0.576,-0.48 0.768,-0.672 1.248,-1.056 l -11.04,-11.712 c -4.416,5.568 -12.576,12 -21.888,17.088 v -15.936 c 0,-5.664 0.192,-9.6 0.576,-12.672 h -16.416 c 0.384,3.264 0.576,7.2 0.576,12.672 v 62.88 c 0,10.08 3.168,12.096 18.624,12.096 7.68,0 14.496,-0.48 18.048,-1.152 2.976,-0.576 4.704,-1.344 6.336,-2.976 3.744,-3.552 4.896,-8.736 5.568,-24.672 -5.376,-0.864 -8.64,-1.92 -14.4,-4.608 -0.096,11.424 -0.768,16.128 -2.4,17.952 -1.056,1.056 -4.32,1.632 -9.792,1.632 -4.992,0 -6.72,-0.672 -6.72,-2.592 z m -43.584,31.008 c 0,4.608 -0.192,8.736 -0.576,12.96 h 16.032 c -0.384,-4.416 -0.576,-8.736 -0.576,-12.96 v -52.8 c 2.304,-4.704 4.128,-9.024 5.184,-12.192 1.344,-3.84 1.344,-3.84 3.072,-8.64 l -15.36,-4.416 c -0.864,6.528 -4.416,15.552 -9.216,23.328 -3.744,6.144 -6.624,9.696 -12,14.496 2.88,6.528 4.224,10.368 5.952,17.184 2.784,-2.784 5.952,-6.432 7.584,-8.832 -0.096,5.76 -0.096,9.024 -0.096,9.792 z"
         id="path80468" />
    </g>
    <g
       aria-label="@lilpopann"
       id="text64419"
       style="font-size:120px;line-height:1.25;font-family:'Hiragino Kaku Gothic Std';-inkscape-font-specification:'Hiragino Kaku Gothic Std';fill:#0068fc">
      <path
         d="m 520.84948,273.04264 -1.2,4.2 c -3.24,-5.04 -6.6,-6.72 -13.32,-6.72 -15.96,0 -29.28,16.8 -29.28,37.08 0,13.68 7.56,22.56 19.44,22.56 6.72,0 11.52,-2.28 16.08,-7.56 0.36,2.16 0.48,2.76 1.08,3.72 1.8,2.88 5.64,4.68 10.32,4.68 8.04,0 16.2,-3.6 22.44,-9.84 7.32,-7.32 11.4,-17.64 11.4,-28.92 0,-25.08 -19.92,-43.08 -47.88,-43.08 -18.6,0 -33.12,5.4 -44.16,16.44 -9.6,9.72 -14.64,22.56 -14.64,37.44 0,13.92 4.92,26.64 13.92,35.52 9.48,9.48 22.68,14.28 39.6,14.28 8.64,0 17.28,-1.32 25.44,-3.84 5.64,-1.68 8.52,-3.12 15,-6.96 l -7.32,-10.56 c -5.76,3.48 -8.76,4.92 -13.44,6.36 -5.52,1.68 -12.12,2.64 -18.36,2.64 -24.12,0 -40.08,-15.12 -40.08,-38.16 0,-23.76 17.76,-40.56 43.08,-40.56 8.52,0 16.08,1.8 21.48,5.04 8.64,5.4 13.8,15 13.8,26.04 0,9.24 -3.84,18.12 -9.72,22.68 -2.4,1.92 -5.28,3.12 -7.56,3.12 -2.04,0 -3.12,-1.08 -3.12,-3 0,-1.08 0.12,-2.28 0.48,-3.6 l 7.2,-26.64 c 0.6,-2.64 2.76,-9.96 3.48,-12.36 z m -22.32,45.24 c -4.56,0 -6.96,-3.36 -6.96,-9.72 0,-5.52 1.92,-12.6 4.8,-18 3,-5.64 7.2,-8.64 11.76,-8.64 4.2,0 6.96,3.36 6.96,8.28 0,5.52 -1.92,12.84 -4.8,18.48 -3.12,6.12 -7.32,9.6 -11.76,9.6 z"
         id="path82043" />
      <path
         d="m 569.20943,251.08264 c 0.72,4.56 0.96,9.6 0.96,18.12 v 63.6 c 0,8.64 -0.24,12.72 -0.96,18.12 h 25.08 c -0.72,-6.36 -0.96,-10.92 -0.96,-18.12 v -63.6 c 0,-8.16 0.24,-13.08 0.96,-18.12 z"
         id="path82045" />
      <path
         d="m 607.24933,251.08264 v 18 h 24.36 v -18 z m -0.36,26.64 c 0.72,5.4 0.96,10.32 0.96,18.12 v 36.96 c 0,7.68 -0.24,12.24 -0.96,18.12 h 25.08 c -0.6,-5.16 -0.96,-11.64 -0.96,-18.12 v -36.96 c 0,-8.4 0.24,-13.2 0.96,-18.12 z"
         id="path82047" />
      <path
         d="m 644.68939,251.08264 c 0.72,4.56 0.96,9.6 0.96,18.12 v 63.6 c 0,8.64 -0.24,12.72 -0.96,18.12 h 25.08 c -0.72,-6.36 -0.96,-10.92 -0.96,-18.12 v -63.6 c 0,-8.16 0.24,-13.08 0.96,-18.12 z"
         id="path82049" />
      <path
         d="m 706.96929,372.64264 c -0.72,-5.16 -0.96,-10.68 -0.96,-17.4 v -8.28 c -0.12,-1.68 -0.12,-3.24 -0.12,-4.32 3.36,2.88 5.16,4.2 8.28,5.52 4.44,1.92 10.56,3.12 16.2,3.12 9.84,0 18.6,-3.36 24.72,-9.48 6.84,-6.84 10.44,-16.8 10.44,-29.04 0,-12.12 -3.24,-21.6 -9.6,-27.96 -6.24,-6.12 -14.88,-9.24 -25.44,-9.24 -9.96,0 -17.4,2.52 -24.6,8.52 0,-0.6 0.12,-1.56 0.12,-2.28 v -4.08 h -23.64 c 0.72,6.12 0.96,11.04 0.96,18.84 v 58.56 c 0,6.36 -0.36,12.36 -0.96,17.52 z m 18.12,-39.48 c -10.8,0 -18.84,-8.52 -18.84,-19.8 0,-10.92 8.16,-19.68 18.12,-19.68 11.28,0 17.76,7.08 17.76,19.32 0,6.84 -1.92,12.36 -5.28,15.6 -3.12,3 -7.2,4.56 -11.76,4.56 z"
         id="path82051" />
      <path
         d="m 811.48938,353.68264 c 23.88,0 39.72,-15.84 39.72,-39.72 0,-23.76 -15.36,-39 -39.6,-39 -24.24,0 -39.6,15.24 -39.6,39.24 0,24.12 15.36,39.48 39.48,39.48 z m 0.24,-60.72 c 10.2,0 16.32,7.92 16.32,21.36 0,13.32 -6,21.12 -16.44,21.12 -10.44,0 -16.68,-8.04 -16.68,-21.36 0,-13.2 6.24,-21.12 16.8,-21.12 z"
         id="path82053" />
      <path
         d="m 885.5294,372.64264 c -0.72,-5.16 -0.96,-10.68 -0.96,-17.4 v -8.28 c -0.12,-1.68 -0.12,-3.24 -0.12,-4.32 3.36,2.88 5.16,4.2 8.28,5.52 4.44,1.92 10.56,3.12 16.2,3.12 9.84,0 18.6,-3.36 24.72,-9.48 6.84,-6.84 10.44,-16.8 10.44,-29.04 0,-12.12 -3.24,-21.6 -9.6,-27.96 -6.24,-6.12 -14.88,-9.24 -25.44,-9.24 -9.96,0 -17.4,2.52 -24.6,8.52 0,-0.6 0.12,-1.56 0.12,-2.28 v -4.08 h -23.64 c 0.72,6.12 0.96,11.04 0.96,18.84 v 58.56 c 0,6.36 -0.36,12.36 -0.96,17.52 z m 18.12,-39.48 c -10.8,0 -18.84,-8.52 -18.84,-19.8 0,-10.92 8.16,-19.68 18.12,-19.68 11.28,0 17.76,7.08 17.76,19.32 0,6.84 -1.92,12.36 -5.28,15.6 -3.12,3 -7.2,4.56 -11.76,4.56 z"
         id="path82055" />
      <path
         d="m 1001.8095,303.52264 c -8.64003,0.24 -12.24003,0.36 -16.92003,0.84 -10.8,0.96 -18.84,3.48 -24.96,7.8 -5.76,3.96 -8.76,9.96 -8.76,17.52 0,6.6 2.28,12.36 6.6,16.32 4.8,4.44 11.64,6.6 20.76,6.6 9.84,0 16.56,-2.04 23.28003,-7.2 v 5.52 h 23.28 c -0.6,-5.4 -0.84,-9.72 -0.84,-17.04 v -32.4 c 0,-10.8 -3.36,-17.4 -11.04,-21.6 -4.68,-2.52 -13.32003,-4.2 -22.20003,-4.2 -11.64,0 -20.52,2.28 -27,6.84 -5.04,3.6 -7.68,7.44 -10.08,14.52 l 22.92,3.72 c 1.8,-5.88 5.88,-8.4 13.56,-8.4 7.92,0 11.40003,2.64 11.40003,8.4 z m 0,18.72 c 0,3.6 -1.56,6.84 -4.32003,9.24 -3.24,2.76 -8.64,4.56 -13.56,4.56 -6.24,0 -9.84,-2.52 -9.84,-6.84 0,-3.48 2.64,-6.48 6.96,-7.92 4.92,-1.56 10.08,-2.16 20.76003,-2.4 z"
         id="path82057" />
      <path
         d="m 1062.6495,350.92264 c -0.72,-6.24 -0.96,-11.28 -0.96,-18.12 v -24.24 c 5.16,-8.4 11.16,-12.6 17.88,-12.6 3.6,0 6.36,1.2 7.92,3.36 1.44,2.04 1.92,4.08 1.92,8.88 v 24.6 c 0,7.32 -0.24,12.36 -0.96,18.12 h 24.96 c -0.6,-5.04 -0.96,-11.04 -0.96,-18 v -30.12 c 0,-9.48 -2.04,-15.36 -6.84,-20.16 -4.44,-4.44 -11.04,-6.72 -19.32,-6.72 -9.84,0 -17.16,3 -24.72,10.2 0,-0.84 0.12,-2.64 0.12,-3.36 v -5.04 h -23.88 c 0.72,4.8 0.96,9.84 0.96,18.12 v 36.96 c 0,7.44 -0.24,12.48 -0.96,18.12 z"
         id="path82059" />
      <path
         d="m 1150.7294,350.92264 c -0.72,-6.24 -0.96,-11.28 -0.96,-18.12 v -24.24 c 5.16,-8.4 11.16,-12.6 17.88,-12.6 3.6,0 6.36,1.2 7.92,3.36 1.44,2.04 1.92,4.08 1.92,8.88 v 24.6 c 0,7.32 -0.24,12.36 -0.96,18.12 h 24.96 c -0.6,-5.04 -0.96,-11.04 -0.96,-18 v -30.12 c 0,-9.48 -2.04,-15.36 -6.84,-20.16 -4.44,-4.44 -11.04,-6.72 -19.32,-6.72 -9.84,0 -17.16,3 -24.72,10.2 0,-0.84 0.12,-2.64 0.12,-3.36 v -5.04 h -23.88 c 0.72,4.8 0.96,9.84 0.96,18.12 v 36.96 c 0,7.44 -0.24,12.48 -0.96,18.12 z"
         id="path82061" />
    </g>
  </g>
</svg>
